<?xml version="1.0" standalone="no"?>
<!DOCTYPE svg PUBLIC "-//W3C//DTD SVG 20010904//EN"
 "http://www.w3.org/TR/2001/REC-SVG-20010904/DTD/svg10.dtd">
<svg version="1.0" xmlns="http://www.w3.org/2000/svg"
 width="512.000000pt" height="512.000000pt" viewBox="0 0 512.000000 512.000000"
 preserveAspectRatio="xMidYMid meet">
<metadata>
Created by potrace 1.16, written by Peter Selinger 2001-2019
</metadata>
<g transform="translate(0.000000,512.000000) scale(0.100000,-0.100000)"
fill="#000000" stroke="none">
<path d="M2551 3983 c-1 -420 2 -763 6 -763 8 0 315 159 326 169 7 7 -77 353
-153 626 -16 61 -32 128 -35 150 -3 22 -37 162 -74 310 l-69 270 -1 -762z"/>
<path d="M3232 3285 c-323 -321 -606 -607 -630 -635 l-43 -50 313 0 313 0 119
233 c117 230 264 522 335 667 21 41 72 141 115 223 43 81 75 147 72 147 -4 0
-271 -263 -594 -585z"/>
<path d="M1307 3807 c13 -22 1217 -1197 1227 -1197 3 0 6 136 6 303 l-1 302
-231 110 c-127 61 -236 115 -242 120 -17 16 -369 185 -384 185 -15 0 -215 99
-222 111 -10 14 -161 80 -153 66z"/>
<path d="M1465 2999 c-104 -32 -197 -63 -205 -68 -21 -12 -244 -81 -261 -81
-8 0 -171 -48 -364 -107 l-350 -108 799 -3 c440 -1 801 -1 802 1 6 6 -211 421
-221 423 -5 1 -95 -24 -200 -57z"/>
<path d="M1776 2393 c-65 -125 -158 -302 -207 -393 -49 -91 -89 -171 -89 -178
0 -18 -99 -212 -116 -230 -15 -14 -144 -265 -144 -278 0 -11 78 64 719 691
l604 590 -109 6 c-60 4 -206 10 -324 14 l-215 7 -119 -229z"/>
<path d="M3408 2592 c-115 -1 -208 -5 -208 -7 0 -7 199 -405 203 -405 11 0
418 120 433 128 24 12 199 62 233 67 40 5 745 207 756 217 8 7 -856 8 -1417 0z"/>
<path d="M2560 2284 l0 -289 213 -114 c116 -63 215 -118 218 -123 7 -10 339
-188 352 -188 12 0 196 -99 232 -125 44 -33 286 -158 292 -152 2 3 -46 54
-108 114 -63 59 -334 324 -604 589 -269 264 -514 502 -542 529 l-53 48 0 -289z"/>
<path d="M2365 1904 c-93 -51 -174 -99 -180 -108 -7 -11 6 -77 44 -233 30
-120 59 -229 66 -243 13 -27 56 -198 61 -239 1 -14 42 -182 91 -373 l88 -348
3 410 c1 226 1 594 0 818 l-3 409 -170 -93z"/>
</g>
</svg>
